<svg width="110" height="110" viewBox="0 0 110 110" fill="none" xmlns="http://www.w3.org/2000/svg">
<rect width="110" height="110" rx="5" fill="#2F80ED"/>
<path d="M43.6406 43.5078C43.6406 44.7891 43.3203 45.9844 42.6797 47.0938C42.0547 48.2031 41.2344 49.1641 40.2188 49.9766C39.2188 50.7891 38.1016 51.4297 36.8672 51.8984C35.6328 52.3516 34.4141 52.5625 33.2109 52.5312H32.8359V52.1094C33.8672 51.8906 34.8359 51.5156 35.7422 50.9844C36.6641 50.4375 37.4609 49.7734 38.1328 48.9922C38.8203 48.2109 39.3594 47.3359 39.75 46.3672C40.1562 45.3984 40.3594 44.3828 40.3594 43.3203C40.3594 42.6172 40.2734 41.9531 40.1016 41.3281C39.9297 40.7031 39.6641 40.1641 39.3047 39.7109C38.9453 39.2578 38.4844 38.8984 37.9219 38.6328C37.375 38.3672 36.7188 38.2344 35.9531 38.2344C34.8594 38.2344 33.75 38.3984 32.625 38.7266C31.5 39.0547 30.4141 39.5156 29.3672 40.1094C28.3203 40.7031 27.3359 41.4062 26.4141 42.2188C25.5078 43.0312 24.7109 43.9219 24.0234 44.8906C23.3516 45.8594 22.8203 46.8906 22.4297 47.9844C22.0391 49.0781 21.8438 50.1953 21.8438 51.3359C21.8438 52.5547 22.0156 53.6094 22.3594 54.5C22.7188 55.375 23.1953 56.1484 23.7891 56.8203C24.3984 57.4766 25.1016 58.0391 25.8984 58.5078C26.6953 58.9766 27.5469 59.4062 28.4531 59.7969C29.3594 60.1719 30.2812 60.5234 31.2188 60.8516C32.1719 61.1797 33.1016 61.5312 34.0078 61.9062C34.9141 62.2812 35.7656 62.7031 36.5625 63.1719C37.3594 63.625 38.0547 64.1719 38.6484 64.8125C39.2578 65.4375 39.7344 66.1875 40.0781 67.0625C40.4375 67.9219 40.6172 68.9375 40.6172 70.1094C40.6172 71.3906 40.3516 72.5312 39.8203 73.5312C39.3047 74.5312 38.6172 75.3672 37.7578 76.0391C36.8984 76.7266 35.9141 77.2422 34.8047 77.5859C33.6953 77.9453 32.5547 78.125 31.3828 78.125C30.1172 78.125 28.9453 77.9062 27.8672 77.4688C26.7891 77.0469 25.8203 76.4688 24.9609 75.7344C24.1016 75.0156 23.3516 74.1797 22.7109 73.2266C22.0703 72.2891 21.5547 71.3125 21.1641 70.2969L21.5156 70.1094C21.9844 70.9375 22.5234 71.75 23.1328 72.5469C23.7422 73.3594 24.4297 74.0781 25.1953 74.7031C25.9609 75.3438 26.8047 75.8594 27.7266 76.25C28.6641 76.6406 29.6797 76.8359 30.7734 76.8359C31.6641 76.8359 32.4922 76.7109 33.2578 76.4609C34.0234 76.2109 34.6875 75.8516 35.25 75.3828C35.8125 74.9141 36.25 74.3359 36.5625 73.6484C36.8906 72.9609 37.0547 72.1797 37.0547 71.3047C37.0547 70.0234 36.7812 68.9688 36.2344 68.1406C35.6875 67.3125 34.9688 66.6094 34.0781 66.0312C33.1875 65.4531 32.1719 64.9609 31.0312 64.5547C29.8906 64.1484 28.7188 63.7422 27.5156 63.3359C26.3281 62.9141 25.1641 62.4453 24.0234 61.9297C22.8828 61.3984 21.8672 60.7344 20.9766 59.9375C20.0859 59.1406 19.3672 58.1562 18.8203 56.9844C18.2734 55.7969 18 54.3438 18 52.625C18 51.0625 18.2422 49.5938 18.7266 48.2188C19.2109 46.8281 19.875 45.5547 20.7188 44.3984C21.5781 43.2422 22.5859 42.2109 23.7422 41.3047C24.8984 40.3828 26.1406 39.6016 27.4688 38.9609C28.8125 38.3203 30.2109 37.8359 31.6641 37.5078C33.1172 37.1641 34.5781 36.9922 36.0469 36.9922C37.0938 36.9922 38.0781 37.1172 39 37.3672C39.9375 37.6172 40.7422 38.0078 41.4141 38.5391C42.1016 39.0547 42.6406 39.7266 43.0312 40.5547C43.4375 41.3828 43.6406 42.3672 43.6406 43.5078Z" fill="#F2F2F2"/>
<path d="M64.5141 37.4141C63.4359 38.7266 62.4594 40.1484 61.5844 41.6797C60.725 43.1953 59.9828 44.8281 59.3578 46.5781C58.7328 48.3125 58.2562 50.1719 57.9281 52.1562C57.6 54.125 57.4359 56.2344 57.4359 58.4844C57.4359 59.5469 57.475 60.6641 57.5531 61.8359C57.6312 62.9922 57.7641 64.1328 57.9516 65.2578C58.1547 66.3672 58.4203 67.4297 58.7484 68.4453C59.0922 69.4453 59.5297 70.3281 60.0609 71.0938C60.5922 71.8594 61.2328 72.4609 61.9828 72.8984C62.7328 73.3516 63.6156 73.5781 64.6312 73.5781C65.5687 73.5781 66.3969 73.2656 67.1156 72.6406C67.85 72.0312 68.4906 71.2266 69.0375 70.2266C68.5375 69.1953 68.1 68.1172 67.725 66.9922C67.3656 65.8672 67.0609 64.7422 66.8109 63.6172C66.5766 62.4766 66.3969 61.3516 66.2719 60.2422C66.1625 59.1328 66.1078 58.0859 66.1078 57.1016C66.1078 56.6484 66.1156 56.0781 66.1312 55.3906C66.1625 54.7031 66.225 53.9844 66.3187 53.2344C66.4125 52.4688 66.5453 51.7031 66.7172 50.9375C66.9047 50.1719 67.1547 49.4922 67.4672 48.8984C67.7797 48.2891 68.1625 47.7969 68.6156 47.4219C69.0844 47.0312 69.6547 46.8359 70.3266 46.8359C70.9359 46.8359 71.4594 47.0234 71.8969 47.3984C72.35 47.7734 72.7328 48.2578 73.0453 48.8516C73.3578 49.4297 73.6156 50.0938 73.8187 50.8438C74.0219 51.5781 74.1781 52.3125 74.2875 53.0469C74.4125 53.7656 74.4906 54.4453 74.5219 55.0859C74.5687 55.7266 74.5922 56.25 74.5922 56.6562C74.5922 57.5469 74.5297 58.5156 74.4047 59.5625C74.2953 60.6094 74.1156 61.6953 73.8656 62.8203C73.6312 63.9297 73.3344 65.0547 72.975 66.1953C72.6156 67.3203 72.1937 68.4062 71.7094 69.4531C72.1781 70.1875 72.6859 70.8594 73.2328 71.4688C73.7797 72.0938 74.3734 72.625 75.0141 73.0625C75.6703 73.5156 76.3656 73.8594 77.1 74.0938C77.8344 74.3438 78.6156 74.4688 79.4437 74.4688C80.7094 74.4688 81.8344 74.2266 82.8187 73.7422C83.8031 73.2734 84.6547 72.6328 85.3734 71.8203C86.0922 71.0078 86.6937 70.0547 87.1781 68.9609C87.6781 67.8672 88.0766 66.7031 88.3734 65.4688C88.6703 64.2344 88.8812 62.9609 89.0062 61.6484C89.1312 60.3359 89.1937 59.0469 89.1937 57.7812C89.1937 55.9688 89.0219 54.1641 88.6781 52.3672C88.35 50.5547 87.8578 48.8047 87.2016 47.1172C86.5609 45.4141 85.7562 43.7969 84.7875 42.2656C83.8344 40.7344 82.725 39.3359 81.4594 38.0703C80.1937 36.8047 78.7797 35.7031 77.2172 34.7656C75.6703 33.8281 73.9828 33.0938 72.1547 32.5625L72.6234 32C74.7797 32.4844 76.7562 33.2422 78.5531 34.2734C80.35 35.3047 81.9672 36.5391 83.4047 37.9766C84.8578 39.4141 86.1234 41.0156 87.2016 42.7812C88.2953 44.5469 89.2016 46.4062 89.9203 48.3594C90.6547 50.3125 91.2016 52.3281 91.5609 54.4062C91.9359 56.4844 92.1234 58.5469 92.1234 60.5938C92.1234 61.8594 92.0219 63.1719 91.8187 64.5312C91.6312 65.875 91.3266 67.1953 90.9047 68.4922C90.4828 69.7734 89.9359 70.9844 89.2641 72.125C88.6078 73.2812 87.8109 74.2891 86.8734 75.1484C85.9359 76.0234 84.8422 76.7109 83.5922 77.2109C82.3578 77.7266 80.9594 77.9844 79.3969 77.9844C78.3812 77.9844 77.4281 77.8438 76.5375 77.5625C75.6469 77.2812 74.8187 76.8828 74.0531 76.3672C73.2875 75.8672 72.5766 75.2656 71.9203 74.5625C71.2797 73.8594 70.6937 73.0859 70.1625 72.2422C69.7094 72.9141 69.225 73.5312 68.7094 74.0938C68.1937 74.6562 67.6391 75.1328 67.0453 75.5234C66.4516 75.9297 65.8187 76.2422 65.1469 76.4609C64.4906 76.6797 63.7953 76.7891 63.0609 76.7891C61.8422 76.7891 60.7719 76.5234 59.85 75.9922C58.9437 75.4766 58.1625 74.7891 57.5062 73.9297C56.8656 73.0859 56.3344 72.125 55.9125 71.0469C55.5062 69.9844 55.1781 68.9062 54.9281 67.8125C54.6937 66.7188 54.5297 65.6641 54.4359 64.6484C54.3422 63.6172 54.2953 62.7266 54.2953 61.9766C54.2953 57.0859 55.1156 52.5547 56.7562 48.3828C58.4125 44.1953 60.85 40.4219 64.0687 37.0625L64.5141 37.4141ZM67.8656 54.9453C67.8656 55.8359 67.9125 56.7812 68.0062 57.7812C68.1156 58.7812 68.2719 59.8047 68.475 60.8516C68.6937 61.8984 68.9594 62.9453 69.2719 63.9922C69.5844 65.0234 69.9594 66.0234 70.3969 66.9922C70.6625 66.1641 70.8891 65.3125 71.0766 64.4375C71.2641 63.5625 71.4203 62.7109 71.5453 61.8828C71.6703 61.0391 71.7562 60.2422 71.8031 59.4922C71.8656 58.7422 71.8969 58.0703 71.8969 57.4766C71.8969 56.5703 71.85 55.6406 71.7562 54.6875C71.6781 53.7344 71.5453 52.8672 71.3578 52.0859C71.1703 51.3047 70.9203 50.6641 70.6078 50.1641C70.3109 49.6641 69.9437 49.4141 69.5062 49.4141C69.2562 49.4141 69.0375 49.5312 68.85 49.7656C68.6781 50 68.5297 50.2969 68.4047 50.6562C68.2953 51 68.2016 51.3906 68.1234 51.8281C68.0453 52.2656 67.9828 52.6953 67.9359 53.1172C67.9047 53.5234 67.8812 53.8906 67.8656 54.2188C67.8656 54.5469 67.8656 54.7891 67.8656 54.9453Z" fill="#F2F2F2"/>
</svg>
