<svg width="100" height="100" viewBox="0 0 100 100" fill="none" xmlns="http://www.w3.org/2000/svg">
<rect width="100" height="100" rx="50" fill="white"/>
<path d="M38.0469 36.2656C38.0469 37.5469 37.7266 38.7422 37.0859 39.8516C36.4609 40.9609 35.6406 41.9219 34.625 42.7344C33.625 43.5469 32.5078 44.1875 31.2734 44.6562C30.0391 45.1094 28.8203 45.3203 27.6172 45.2891H27.2422V44.8672C28.2734 44.6484 29.2422 44.2734 30.1484 43.7422C31.0703 43.1953 31.8672 42.5312 32.5391 41.75C33.2266 40.9688 33.7656 40.0938 34.1562 39.125C34.5625 38.1562 34.7656 37.1406 34.7656 36.0781C34.7656 35.375 34.6797 34.7109 34.5078 34.0859C34.3359 33.4609 34.0703 32.9219 33.7109 32.4688C33.3516 32.0156 32.8906 31.6562 32.3281 31.3906C31.7812 31.125 31.125 30.9922 30.3594 30.9922C29.2656 30.9922 28.1562 31.1562 27.0312 31.4844C25.9062 31.8125 24.8203 32.2734 23.7734 32.8672C22.7266 33.4609 21.7422 34.1641 20.8203 34.9766C19.9141 35.7891 19.1172 36.6797 18.4297 37.6484C17.7578 38.6172 17.2266 39.6484 16.8359 40.7422C16.4453 41.8359 16.25 42.9531 16.25 44.0938C16.25 45.3125 16.4219 46.3672 16.7656 47.2578C17.125 48.1328 17.6016 48.9062 18.1953 49.5781C18.8047 50.2344 19.5078 50.7969 20.3047 51.2656C21.1016 51.7344 21.9531 52.1641 22.8594 52.5547C23.7656 52.9297 24.6875 53.2812 25.625 53.6094C26.5781 53.9375 27.5078 54.2891 28.4141 54.6641C29.3203 55.0391 30.1719 55.4609 30.9688 55.9297C31.7656 56.3828 32.4609 56.9297 33.0547 57.5703C33.6641 58.1953 34.1406 58.9453 34.4844 59.8203C34.8438 60.6797 35.0234 61.6953 35.0234 62.8672C35.0234 64.1484 34.7578 65.2891 34.2266 66.2891C33.7109 67.2891 33.0234 68.125 32.1641 68.7969C31.3047 69.4844 30.3203 70 29.2109 70.3438C28.1016 70.7031 26.9609 70.8828 25.7891 70.8828C24.5234 70.8828 23.3516 70.6641 22.2734 70.2266C21.1953 69.8047 20.2266 69.2266 19.3672 68.4922C18.5078 67.7734 17.7578 66.9375 17.1172 65.9844C16.4766 65.0469 15.9609 64.0703 15.5703 63.0547L15.9219 62.8672C16.3906 63.6953 16.9297 64.5078 17.5391 65.3047C18.1484 66.1172 18.8359 66.8359 19.6016 67.4609C20.3672 68.1016 21.2109 68.6172 22.1328 69.0078C23.0703 69.3984 24.0859 69.5938 25.1797 69.5938C26.0703 69.5938 26.8984 69.4688 27.6641 69.2188C28.4297 68.9688 29.0938 68.6094 29.6562 68.1406C30.2188 67.6719 30.6562 67.0938 30.9688 66.4062C31.2969 65.7188 31.4609 64.9375 31.4609 64.0625C31.4609 62.7812 31.1875 61.7266 30.6406 60.8984C30.0938 60.0703 29.375 59.3672 28.4844 58.7891C27.5938 58.2109 26.5781 57.7188 25.4375 57.3125C24.2969 56.9062 23.125 56.5 21.9219 56.0938C20.7344 55.6719 19.5703 55.2031 18.4297 54.6875C17.2891 54.1562 16.2734 53.4922 15.3828 52.6953C14.4922 51.8984 13.7734 50.9141 13.2266 49.7422C12.6797 48.5547 12.4062 47.1016 12.4062 45.3828C12.4062 43.8203 12.6484 42.3516 13.1328 40.9766C13.6172 39.5859 14.2812 38.3125 15.125 37.1562C15.9844 36 16.9922 34.9688 18.1484 34.0625C19.3047 33.1406 20.5469 32.3594 21.875 31.7188C23.2188 31.0781 24.6172 30.5938 26.0703 30.2656C27.5234 29.9219 28.9844 29.75 30.4531 29.75C31.5 29.75 32.4844 29.875 33.4062 30.125C34.3438 30.375 35.1484 30.7656 35.8203 31.2969C36.5078 31.8125 37.0469 32.4844 37.4375 33.3125C37.8438 34.1406 38.0469 35.125 38.0469 36.2656Z" fill="black"/>
<path d="M58.9203 30.1719C57.8422 31.4844 56.8656 32.9062 55.9906 34.4375C55.1312 35.9531 54.3891 37.5859 53.7641 39.3359C53.1391 41.0703 52.6625 42.9297 52.3344 44.9141C52.0062 46.8828 51.8422 48.9922 51.8422 51.2422C51.8422 52.3047 51.8812 53.4219 51.9594 54.5938C52.0375 55.75 52.1703 56.8906 52.3578 58.0156C52.5609 59.125 52.8266 60.1875 53.1547 61.2031C53.4984 62.2031 53.9359 63.0859 54.4672 63.8516C54.9984 64.6172 55.6391 65.2188 56.3891 65.6562C57.1391 66.1094 58.0219 66.3359 59.0375 66.3359C59.975 66.3359 60.8031 66.0234 61.5219 65.3984C62.2562 64.7891 62.8969 63.9844 63.4437 62.9844C62.9437 61.9531 62.5062 60.875 62.1312 59.75C61.7719 58.625 61.4672 57.5 61.2172 56.375C60.9828 55.2344 60.8031 54.1094 60.6781 53C60.5687 51.8906 60.5141 50.8438 60.5141 49.8594C60.5141 49.4062 60.5219 48.8359 60.5375 48.1484C60.5687 47.4609 60.6312 46.7422 60.725 45.9922C60.8187 45.2266 60.9516 44.4609 61.1234 43.6953C61.3109 42.9297 61.5609 42.25 61.8734 41.6562C62.1859 41.0469 62.5687 40.5547 63.0219 40.1797C63.4906 39.7891 64.0609 39.5938 64.7328 39.5938C65.3422 39.5938 65.8656 39.7812 66.3031 40.1562C66.7562 40.5312 67.1391 41.0156 67.4516 41.6094C67.7641 42.1875 68.0219 42.8516 68.225 43.6016C68.4281 44.3359 68.5844 45.0703 68.6937 45.8047C68.8187 46.5234 68.8969 47.2031 68.9281 47.8438C68.975 48.4844 68.9984 49.0078 68.9984 49.4141C68.9984 50.3047 68.9359 51.2734 68.8109 52.3203C68.7016 53.3672 68.5219 54.4531 68.2719 55.5781C68.0375 56.6875 67.7406 57.8125 67.3812 58.9531C67.0219 60.0781 66.6 61.1641 66.1156 62.2109C66.5844 62.9453 67.0922 63.6172 67.6391 64.2266C68.1859 64.8516 68.7797 65.3828 69.4203 65.8203C70.0766 66.2734 70.7719 66.6172 71.5062 66.8516C72.2406 67.1016 73.0219 67.2266 73.85 67.2266C75.1156 67.2266 76.2406 66.9844 77.225 66.5C78.2094 66.0312 79.0609 65.3906 79.7797 64.5781C80.4984 63.7656 81.1 62.8125 81.5844 61.7188C82.0844 60.625 82.4828 59.4609 82.7797 58.2266C83.0766 56.9922 83.2875 55.7188 83.4125 54.4062C83.5375 53.0938 83.6 51.8047 83.6 50.5391C83.6 48.7266 83.4281 46.9219 83.0844 45.125C82.7562 43.3125 82.2641 41.5625 81.6078 39.875C80.9672 38.1719 80.1625 36.5547 79.1937 35.0234C78.2406 33.4922 77.1312 32.0938 75.8656 30.8281C74.6 29.5625 73.1859 28.4609 71.6234 27.5234C70.0766 26.5859 68.3891 25.8516 66.5609 25.3203L67.0297 24.7578C69.1859 25.2422 71.1625 26 72.9594 27.0312C74.7562 28.0625 76.3734 29.2969 77.8109 30.7344C79.2641 32.1719 80.5297 33.7734 81.6078 35.5391C82.7016 37.3047 83.6078 39.1641 84.3266 41.1172C85.0609 43.0703 85.6078 45.0859 85.9672 47.1641C86.3422 49.2422 86.5297 51.3047 86.5297 53.3516C86.5297 54.6172 86.4281 55.9297 86.225 57.2891C86.0375 58.6328 85.7328 59.9531 85.3109 61.25C84.8891 62.5312 84.3422 63.7422 83.6703 64.8828C83.0141 66.0391 82.2172 67.0469 81.2797 67.9062C80.3422 68.7812 79.2484 69.4688 77.9984 69.9688C76.7641 70.4844 75.3656 70.7422 73.8031 70.7422C72.7875 70.7422 71.8344 70.6016 70.9437 70.3203C70.0531 70.0391 69.225 69.6406 68.4594 69.125C67.6937 68.625 66.9828 68.0234 66.3266 67.3203C65.6859 66.6172 65.1 65.8438 64.5687 65C64.1156 65.6719 63.6312 66.2891 63.1156 66.8516C62.6 67.4141 62.0453 67.8906 61.4516 68.2812C60.8578 68.6875 60.225 69 59.5531 69.2188C58.8969 69.4375 58.2016 69.5469 57.4672 69.5469C56.2484 69.5469 55.1781 69.2812 54.2562 68.75C53.35 68.2344 52.5687 67.5469 51.9125 66.6875C51.2719 65.8438 50.7406 64.8828 50.3187 63.8047C49.9125 62.7422 49.5844 61.6641 49.3344 60.5703C49.1 59.4766 48.9359 58.4219 48.8422 57.4062C48.7484 56.375 48.7016 55.4844 48.7016 54.7344C48.7016 49.8438 49.5219 45.3125 51.1625 41.1406C52.8187 36.9531 55.2562 33.1797 58.475 29.8203L58.9203 30.1719ZM62.2719 47.7031C62.2719 48.5938 62.3187 49.5391 62.4125 50.5391C62.5219 51.5391 62.6781 52.5625 62.8812 53.6094C63.1 54.6562 63.3656 55.7031 63.6781 56.75C63.9906 57.7812 64.3656 58.7812 64.8031 59.75C65.0687 58.9219 65.2953 58.0703 65.4828 57.1953C65.6703 56.3203 65.8266 55.4688 65.9516 54.6406C66.0766 53.7969 66.1625 53 66.2094 52.25C66.2719 51.5 66.3031 50.8281 66.3031 50.2344C66.3031 49.3281 66.2562 48.3984 66.1625 47.4453C66.0844 46.4922 65.9516 45.625 65.7641 44.8438C65.5766 44.0625 65.3266 43.4219 65.0141 42.9219C64.7172 42.4219 64.35 42.1719 63.9125 42.1719C63.6625 42.1719 63.4437 42.2891 63.2562 42.5234C63.0844 42.7578 62.9359 43.0547 62.8109 43.4141C62.7016 43.7578 62.6078 44.1484 62.5297 44.5859C62.4516 45.0234 62.3891 45.4531 62.3422 45.875C62.3109 46.2812 62.2875 46.6484 62.2719 46.9766C62.2719 47.3047 62.2719 47.5469 62.2719 47.7031Z" fill="black"/>
</svg>
