<svg viewBox="0 0 181 40" fill="none" xmlns="http://www.w3.org/2000/svg">
    <path
        d="M19.3898 9.37023C19.3898 10.4135 19.1482 11.3868 18.6651 12.2901C18.1938 13.1934 17.5753 13.9758 16.8094 14.6374C16.0553 15.299 15.2129 15.8206 14.2821 16.2023C13.3512 16.5712 12.4322 16.743 11.5249 16.7176H11.2422V16.374C12.0198 16.1959 12.7503 15.8906 13.4337 15.458C14.1289 15.0127 14.7298 14.472 15.2364 13.8359C15.7549 13.1997 16.1614 12.4873 16.4559 11.6985C16.7623 10.9097 16.9154 10.0827 16.9154 9.21756C16.9154 8.64504 16.8506 8.10433 16.721 7.59542C16.5914 7.08651 16.3911 6.64758 16.1201 6.27863C15.8491 5.90967 15.5015 5.61705 15.0774 5.40076C14.665 5.18448 14.1701 5.07634 13.5928 5.07634C12.768 5.07634 11.9314 5.20992 11.0831 5.4771C10.2348 5.74427 9.41588 6.11959 8.62645 6.60305C7.83703 7.08651 7.09473 7.65903 6.39956 8.32061C5.71618 8.98219 5.11527 9.70738 4.59684 10.4962C4.09019 11.285 3.68959 12.1247 3.39503 13.0153C3.10046 13.9059 2.95318 14.8155 2.95318 15.7443C2.95318 16.7366 3.08279 17.5954 3.342 18.3206C3.613 19.0331 3.97237 19.6628 4.4201 20.2099C4.87962 20.7443 5.40983 21.2023 6.01074 21.584C6.61165 21.9656 7.25379 22.3155 7.93718 22.6336C8.62056 22.9389 9.31573 23.2252 10.0227 23.4924C10.7414 23.7595 11.4425 24.0458 12.1259 24.3511C12.8092 24.6565 13.4514 25 14.0523 25.3817C14.6532 25.7506 15.1775 26.1959 15.6253 26.7176C16.0848 27.2265 16.4441 27.8372 16.7034 28.5496C16.9744 29.2494 17.1099 30.0763 17.1099 31.0305C17.1099 32.0738 16.9095 33.0025 16.5089 33.8168C16.1201 34.631 15.6017 35.3117 14.9537 35.8588C14.3056 36.4186 13.5633 36.8384 12.7268 37.1183C11.8902 37.4109 11.0301 37.5573 10.1464 37.5573C9.19201 37.5573 8.30833 37.3791 7.49533 37.0229C6.68234 36.6794 5.95183 36.2087 5.30379 35.6107C4.65575 35.0254 4.09019 34.3448 3.60711 33.5687C3.12403 32.8053 2.73521 32.0102 2.44064 31.1832L2.70575 31.0305C3.05922 31.7048 3.46572 32.3664 3.92524 33.0153C4.38475 33.6768 4.90318 34.2621 5.48053 34.771C6.05787 35.2926 6.69412 35.7125 7.38929 36.0305C8.09624 36.3486 8.8621 36.5076 9.68688 36.5076C10.3585 36.5076 10.983 36.4059 11.5603 36.2023C12.1376 35.9987 12.6384 35.7061 13.0626 35.3244C13.4867 34.9427 13.8166 34.472 14.0523 33.9122C14.2997 33.3524 14.4234 32.7163 14.4234 32.0038C14.4234 30.9606 14.2172 30.1018 13.8049 29.4275C13.3925 28.7532 12.8505 28.1807 12.1789 27.7099C11.5073 27.2392 10.7414 26.8384 9.88129 26.5076C9.02117 26.1768 8.13748 25.8461 7.23023 25.5153C6.33476 25.1718 5.45696 24.7901 4.59684 24.3702C3.73672 23.9377 2.97086 23.3969 2.29925 22.7481C1.62765 22.0992 1.08566 21.2977 0.673269 20.3435C0.260881 19.3766 0.0546875 18.1934 0.0546875 16.7939C0.0546875 15.5216 0.237316 14.3257 0.602574 13.2061C0.967831 12.0738 1.46859 11.0369 2.10484 10.0954C2.75288 9.15394 3.51285 8.31425 4.38475 7.57634C5.25666 6.8257 6.19337 6.18957 7.19488 5.66794C8.20817 5.14631 9.26271 4.75191 10.3585 4.48473C11.4543 4.20483 12.5559 4.06489 13.6635 4.06489C14.4529 4.06489 15.1952 4.16667 15.8904 4.37023C16.5973 4.57379 17.2041 4.89186 17.7108 5.32443C18.2292 5.74427 18.6357 6.29135 18.9302 6.96565C19.2366 7.63995 19.3898 8.44148 19.3898 9.37023Z"
        fill="black" />
    <path
        d="M29.7006 4.4084C28.8876 5.4771 28.1512 6.63486 27.4914 7.88168C26.8434 9.11578 26.2837 10.4453 25.8124 11.8702C25.3411 13.2824 24.9817 14.7964 24.7343 16.4122C24.4869 18.0153 24.3632 19.7328 24.3632 21.5649C24.3632 22.43 24.3926 23.3397 24.4515 24.2939C24.5104 25.2354 24.6106 26.1641 24.752 27.0802C24.9051 27.9835 25.1055 28.8486 25.3529 29.6756C25.6121 30.4898 25.942 31.2087 26.3426 31.8321C26.7432 32.4555 27.2263 32.9453 27.7919 33.3015C28.3574 33.6705 29.0231 33.855 29.789 33.855C30.4959 33.855 31.1204 33.6005 31.6624 33.0916C32.2162 32.5954 32.6993 31.9402 33.1117 31.126C32.7346 30.2863 32.4047 29.4084 32.1219 28.4924C31.8509 27.5763 31.6212 26.6603 31.4327 25.7443C31.2559 24.8155 31.1204 23.8995 31.0262 22.9962C30.9437 22.0929 30.9024 21.2405 30.9024 20.4389C30.9024 20.07 30.9083 19.6056 30.9201 19.0458C30.9437 18.486 30.9908 17.9008 31.0615 17.2901C31.1322 16.6667 31.2323 16.0433 31.362 15.4198C31.5033 14.7964 31.6919 14.243 31.9275 13.7595C32.1632 13.2634 32.4518 12.8626 32.7935 12.5573C33.147 12.2392 33.5771 12.0802 34.0837 12.0802C34.5432 12.0802 34.9379 12.2328 35.2679 12.5382C35.6095 12.8435 35.8982 13.2379 36.1339 13.7214C36.3695 14.1921 36.5639 14.7328 36.7171 15.3435C36.8703 15.9415 36.9881 16.5394 37.0706 17.1374C37.1648 17.7226 37.2237 18.2761 37.2473 18.7977C37.2827 19.3193 37.3003 19.7455 37.3003 20.0763C37.3003 20.8015 37.2532 21.5903 37.1589 22.4427C37.0765 23.2952 36.941 24.1794 36.7524 25.0954C36.5757 25.9987 36.3518 26.9148 36.0808 27.8435C35.8098 28.7595 35.4917 29.6438 35.1265 30.4962C35.4799 31.0941 35.8629 31.6412 36.2753 32.1374C36.6876 32.6463 37.1354 33.0789 37.6185 33.4351C38.1133 33.8041 38.6376 34.084 39.1914 34.2748C39.7452 34.4784 40.3343 34.5802 40.9588 34.5802C41.9132 34.5802 42.7615 34.383 43.5038 33.9885C44.2461 33.6069 44.8883 33.0852 45.4303 32.4237C45.9723 31.7621 46.4259 30.986 46.7911 30.0954C47.1682 29.2048 47.4686 28.257 47.6925 27.2519C47.9164 26.2468 48.0754 25.2099 48.1697 24.1412C48.2639 23.0725 48.3111 22.0229 48.3111 20.9924C48.3111 19.5165 48.1815 18.0471 47.9223 16.584C47.6748 15.1081 47.3037 13.6832 46.8088 12.3092C46.3257 10.9224 45.7189 9.6056 44.9884 8.35878C44.2697 7.11196 43.4331 5.97328 42.4787 4.94275C41.5244 3.91221 40.458 3.01527 39.2798 2.25191C38.1133 1.48855 36.8408 0.890585 35.4623 0.458015L35.8157 0C37.4417 0.394402 38.9322 1.01145 40.2872 1.85115C41.6422 2.69084 42.8617 3.69593 43.9457 4.86641C45.0414 6.0369 45.9958 7.34097 46.8088 8.77863C47.6336 10.2163 48.317 11.7303 48.859 13.3206C49.4127 14.9109 49.8251 16.5522 50.0961 18.2443C50.3789 19.9364 50.5203 21.6158 50.5203 23.2824C50.5203 24.313 50.4437 25.3817 50.2905 26.4885C50.1491 27.5827 49.9194 28.6578 49.6013 29.7137C49.2831 30.757 48.8707 31.743 48.3641 32.6718C47.8692 33.6132 47.2683 34.4338 46.5614 35.1336C45.8544 35.8461 45.0297 36.4059 44.0871 36.813C43.1562 37.2328 42.1017 37.4427 40.9235 37.4427C40.1576 37.4427 39.4389 37.3282 38.7673 37.0992C38.0957 36.8702 37.4712 36.5458 36.8938 36.126C36.3165 35.7188 35.7804 35.229 35.2855 34.6565C34.8024 34.084 34.3606 33.4542 33.96 32.7672C33.6183 33.3142 33.253 33.8168 32.8642 34.2748C32.4754 34.7328 32.0571 35.1209 31.6094 35.4389C31.1617 35.7697 30.6845 36.0242 30.1778 36.2023C29.683 36.3804 29.1586 36.4695 28.6049 36.4695C27.6858 36.4695 26.8787 36.2532 26.1835 35.8206C25.5002 35.4008 24.911 34.841 24.4162 34.1412C23.9331 33.4542 23.5325 32.6718 23.2144 31.7939C22.908 30.9288 22.6606 30.0509 22.4721 29.1603C22.2953 28.2697 22.1716 27.4109 22.1009 26.584C22.0302 25.7443 21.9949 25.0191 21.9949 24.4084C21.9949 20.4262 22.6135 16.7366 23.8506 13.3397C25.0996 9.93003 26.9376 6.85751 29.3648 4.12214L29.7006 4.4084ZM32.228 18.6832C32.228 19.4084 32.2633 20.1781 32.334 20.9924C32.4165 21.8066 32.5343 22.6399 32.6875 23.4924C32.8524 24.3448 33.0527 25.1972 33.2884 26.0496C33.524 26.8893 33.8068 27.7036 34.1367 28.4924C34.337 27.8181 34.5079 27.1247 34.6493 26.4122C34.7907 25.6997 34.9085 25.0064 35.0027 24.3321C35.097 23.645 35.1618 22.9962 35.1972 22.3855C35.2443 21.7748 35.2679 21.2277 35.2679 20.7443C35.2679 20.0064 35.2325 19.2494 35.1618 18.4733C35.1029 17.6972 35.0027 16.9911 34.8614 16.355C34.72 15.7188 34.5314 15.1972 34.2958 14.7901C34.0719 14.383 33.795 14.1794 33.4651 14.1794C33.2766 14.1794 33.1117 14.2748 32.9703 14.4656C32.8407 14.6565 32.7287 14.8982 32.6345 15.1908C32.552 15.4707 32.4813 15.7888 32.4224 16.145C32.3635 16.5013 32.3163 16.8511 32.281 17.1947C32.2574 17.5254 32.2398 17.8244 32.228 18.0916C32.228 18.3588 32.228 18.556 32.228 18.6832Z"
        fill="black" />
    <path
        d="M102.902 39.1794C102.501 39.4975 102.065 39.7137 101.594 39.8282C101.134 39.9427 100.669 40 100.198 40C98.5835 40 97.146 39.7392 95.8853 39.2176C94.6363 38.7087 93.5347 38.0025 92.5803 37.0992C91.6377 36.1959 90.8306 35.1336 90.159 33.9122C89.4991 32.6908 88.9454 31.374 88.4976 29.9618C88.0617 28.5496 87.7259 27.0738 87.4902 25.5344C87.2546 23.9949 87.0955 22.4618 87.013 20.9351C86.9306 19.3957 86.907 17.8944 86.9423 16.4313C86.9895 14.9555 87.072 13.5878 87.1898 12.3282C86.9777 12.6718 86.7185 13.2188 86.4121 13.9695C86.1058 14.7201 85.7641 15.598 85.3871 16.6031C85.0218 17.6081 84.6389 18.7087 84.2383 19.9046C83.8377 21.0878 83.4371 22.2837 83.0365 23.4924C82.6476 24.701 82.2647 25.8906 81.8877 27.0611C81.5224 28.2188 81.1925 29.2748 80.8979 30.229C80.6151 31.1832 80.3677 31.9911 80.1556 32.6527C79.9553 33.327 79.8257 33.7786 79.7668 34.0076C79.7197 34.1603 79.6549 34.3511 79.5724 34.5802C79.5017 34.8092 79.4074 35.0318 79.2896 35.2481C79.1836 35.4644 79.054 35.6489 78.9008 35.8015C78.7594 35.9542 78.5944 36.0305 78.4059 36.0305C78.1938 36.0305 78.0171 35.9351 77.8757 35.7443C77.7343 35.5662 77.6165 35.3499 77.5222 35.0954C77.4398 34.841 77.3691 34.5865 77.3102 34.3321C77.263 34.0776 77.2277 33.874 77.2041 33.7214C77.1334 33.187 77.0686 32.5127 77.0097 31.6985C76.9508 30.8842 76.8978 29.9809 76.8506 28.9885C76.8153 27.9962 76.7858 26.9402 76.7623 25.8206C76.7387 24.6883 76.7151 23.556 76.6916 22.4237C76.6798 21.2786 76.668 20.159 76.6562 19.0649C76.6562 17.958 76.6503 16.9275 76.6386 15.9733C76.6386 15.0064 76.6386 14.1412 76.6386 13.3779C76.6386 12.6145 76.6386 12.0038 76.6386 11.5458C76.3793 12.1819 76.0671 12.9898 75.7018 13.9695C75.3484 14.9491 74.9595 16.0496 74.5354 17.271C74.123 18.4924 73.687 19.8092 73.2275 21.2214C72.7798 22.6209 72.3321 24.0649 71.8843 25.5534C71.4484 27.042 71.0242 28.5433 70.6118 30.0573C70.2112 31.5712 69.8518 33.0407 69.5337 34.4656C69.4984 34.5929 69.4512 34.7455 69.3923 34.9237C69.3452 35.1145 69.2804 35.2926 69.1979 35.458C69.1154 35.6234 69.0094 35.7634 68.8798 35.8779C68.762 36.0051 68.6147 36.0687 68.4379 36.0687C68.273 36.0687 68.1257 36.0115 67.9961 35.8969C67.8665 35.7824 67.7546 35.6425 67.6603 35.4771C67.5778 35.3244 67.5071 35.1527 67.4482 34.9618C67.4011 34.7837 67.3716 34.6183 67.3598 34.4656C67.3009 34.1476 67.2479 33.7977 67.2008 33.416C67.1654 33.0344 67.1301 32.6399 67.0947 32.2328C67.0712 31.8384 67.0476 31.444 67.024 31.0496C67.0005 30.6679 66.9769 30.3117 66.9533 29.9809C66.8237 28.2379 66.7295 26.514 66.6706 24.8092C66.6234 23.1043 66.5999 21.3868 66.5999 19.6565C66.5999 17.9517 66.6234 16.2595 66.6706 14.5802C66.7295 12.9008 66.812 11.2023 66.918 9.48473C66.9533 8.98855 67.0064 8.43511 67.0771 7.82443C67.1478 7.20102 67.2833 6.61578 67.4836 6.0687C67.6956 5.52163 67.9961 5.06361 68.3849 4.69466C68.7855 4.3257 69.3275 4.14122 70.0109 4.14122C70.1759 4.14122 70.3172 4.18575 70.4351 4.27481C70.5529 4.35115 70.6118 4.49109 70.6118 4.69466V4.8855C70.5058 5.64885 70.3997 6.41221 70.2937 7.17557C70.1876 7.92621 70.0757 8.69593 69.9579 9.48473C69.6751 12.0293 69.4336 14.5738 69.2333 17.1183C69.0447 19.6501 68.9505 22.201 68.9505 24.771C68.9505 25.7761 68.9682 26.7684 69.0035 27.7481C69.0388 28.7277 69.1036 29.7137 69.1979 30.7061C70.0109 27.9835 70.7237 25.5725 71.3364 23.4733C71.9609 21.374 72.5088 19.5356 72.9801 17.958C73.4514 16.3804 73.8461 15.0382 74.1642 13.9313C74.4941 12.8117 74.771 11.8766 74.9949 11.126C75.2188 10.3753 75.3955 9.77735 75.5251 9.33206C75.6547 8.87405 75.7608 8.52417 75.8432 8.28244C75.9257 8.02799 75.9846 7.84351 76.02 7.72901C76.0553 7.6145 76.0907 7.51272 76.126 7.42366C76.3028 6.99109 76.5443 6.60305 76.8506 6.25954C77.157 5.91603 77.5517 5.74427 78.0348 5.74427C78.3647 5.74427 78.6298 5.83333 78.8301 6.01145C79.0422 6.18957 79.2071 6.41221 79.325 6.67939C79.4428 6.94656 79.5194 7.23919 79.5547 7.55725C79.6019 7.87532 79.6254 8.16794 79.6254 8.43511C79.6019 10.4071 79.5488 12.3601 79.4664 14.2939C79.3839 16.215 79.3132 18.1234 79.2543 20.0191C79.1954 21.9148 79.1659 23.7977 79.1659 25.6679C79.1777 27.5382 79.2602 29.402 79.4133 31.2595C79.8846 29.7583 80.3206 28.3461 80.7212 27.0229C81.1218 25.687 81.4988 24.4148 81.8523 23.2061C82.2176 21.9975 82.5652 20.8333 82.8951 19.7137C83.2368 18.5941 83.5843 17.4873 83.9378 16.3931C84.3031 15.299 84.6801 14.2048 85.0689 13.1107C85.4578 12.0165 85.8878 10.8906 86.3591 9.73282C86.4652 9.50382 86.583 9.27481 86.7126 9.0458C86.8422 8.80407 86.9895 8.58779 87.1544 8.39695C87.3194 8.20611 87.5079 8.04707 87.72 7.91985C87.9321 7.79262 88.1677 7.72901 88.4269 7.72901C88.7922 7.72901 89.0809 7.85623 89.293 8.11069C89.505 8.36514 89.6641 8.67048 89.7701 9.02672C89.888 9.38295 89.9646 9.75827 89.9999 10.1527C90.0353 10.5344 90.0529 10.8588 90.0529 11.126C90.0529 12.2964 90.0176 13.5941 89.9469 15.0191C89.8762 16.4313 89.8232 17.9008 89.7878 19.4275C89.7643 20.9542 89.7819 22.5 89.8408 24.0649C89.8998 25.6298 90.0588 27.1438 90.318 28.6069C90.5772 30.07 90.9602 31.4377 91.4668 32.7099C91.9735 33.9822 92.6569 35.0891 93.517 36.0305C94.3771 36.9847 95.4375 37.7354 96.6983 38.2824C97.9708 38.8295 99.4966 39.1031 101.276 39.1031C101.547 39.1031 101.806 39.0776 102.053 39.0267C102.313 38.9885 102.56 38.9122 102.796 38.7977L102.902 39.1794Z"
        fill="black" />
    <path
        d="M105.896 24.6947C105.896 25.5852 105.76 26.4122 105.489 27.1756C105.218 27.9389 104.835 28.6005 104.34 29.1603C103.846 29.7201 103.25 30.159 102.555 30.4771C101.872 30.7952 101.112 30.9542 100.275 30.9542C99.5331 30.9542 98.8615 30.8015 98.2606 30.4962C97.6715 30.2036 97.1648 29.8028 96.7407 29.2939C96.3165 28.785 95.9925 28.1934 95.7686 27.5191C95.5447 26.8321 95.4328 26.1005 95.4328 25.3244C95.4328 24.6756 95.5153 24.0585 95.6802 23.4733C95.857 22.888 96.0985 22.3473 96.4049 21.8511C96.7112 21.3422 97.0765 20.8779 97.5006 20.458C97.9248 20.0254 98.3843 19.6374 98.8792 19.2939L99.0913 19.4656C98.5964 20.0891 98.2076 20.7761 97.9248 21.5267C97.642 22.2774 97.5006 23.0725 97.5006 23.9122C97.5006 24.5229 97.5831 25.1463 97.7481 25.7824C97.9248 26.4059 98.1781 26.9784 98.508 27.5C98.838 28.0216 99.2503 28.4478 99.7452 28.7786C100.24 29.1094 100.806 29.2748 101.442 29.2748C101.842 29.2748 102.22 29.1858 102.573 29.0076C102.926 28.8295 103.233 28.5878 103.492 28.2824C103.763 27.9771 103.975 27.6336 104.128 27.2519C104.293 26.8575 104.376 26.4504 104.376 26.0305C104.376 25.6234 104.317 25.229 104.199 24.8473C104.093 24.4529 103.94 24.0903 103.739 23.7595C103.539 23.416 103.298 23.1107 103.015 22.8435C102.732 22.5636 102.426 22.3346 102.096 22.1565C101.907 22.0547 101.725 21.9784 101.548 21.9275C101.383 21.8766 101.2 21.8193 101 21.7557C100.918 21.743 100.829 21.7239 100.735 21.6985C100.641 21.6603 100.552 21.6221 100.47 21.584C100.387 21.5331 100.317 21.4695 100.258 21.3931C100.199 21.3168 100.169 21.2214 100.169 21.1069C100.169 20.8779 100.246 20.6679 100.399 20.4771C100.552 20.2863 100.735 20.1209 100.947 19.9809C101.159 19.8282 101.383 19.7137 101.619 19.6374C101.854 19.5483 102.06 19.5038 102.237 19.5038C102.838 19.5038 103.368 19.6692 103.828 20C104.287 20.3308 104.67 20.7506 104.977 21.2595C105.283 21.7684 105.513 22.3282 105.666 22.9389C105.819 23.5496 105.896 24.1349 105.896 24.6947Z"
        fill="black" />
    <path
        d="M123.311 27.4046C123.076 27.9008 122.805 28.3779 122.498 28.8359C122.192 29.2939 121.839 29.701 121.438 30.0573C121.037 30.4135 120.59 30.6934 120.095 30.8969C119.6 31.1132 119.04 31.2214 118.416 31.2214C117.285 31.2214 116.354 30.9415 115.623 30.3817C114.905 29.8219 114.298 29.0394 113.803 28.0344C113.662 28.098 113.52 28.1552 113.379 28.2061C113.249 28.2443 113.12 28.2888 112.99 28.3397C112.966 28.556 112.943 28.7532 112.919 28.9313C112.896 29.1094 112.872 29.2748 112.849 29.4275C112.825 29.5929 112.795 29.771 112.76 29.9618C112.725 30.1527 112.666 30.3308 112.583 30.4962C112.501 30.6616 112.389 30.7952 112.248 30.8969C112.106 31.0115 111.912 31.0687 111.664 31.0687C111.311 31.0687 111.063 30.9478 110.922 30.7061C110.781 30.4771 110.669 30.2226 110.586 29.9427C110.41 29.3321 110.245 28.5941 110.091 27.729C109.95 26.8639 109.826 25.9733 109.72 25.0573C109.614 24.1285 109.532 23.2125 109.473 22.3092C109.414 21.4059 109.384 20.6043 109.384 19.9046C109.384 19.0649 109.408 18.1807 109.455 17.2519C109.502 16.3104 109.585 15.3626 109.703 14.4084C109.82 13.4542 109.979 12.5127 110.18 11.584C110.392 10.6425 110.657 9.74555 110.975 8.89313C111.293 8.04071 111.67 7.25191 112.106 6.52672C112.554 5.7888 113.078 5.15267 113.679 4.61832C113.95 4.37659 114.257 4.16667 114.598 3.98855C114.952 3.81043 115.299 3.72137 115.641 3.72137C115.782 3.72137 115.941 3.75954 116.118 3.83588C116.307 3.89949 116.401 4.02672 116.401 4.21756C116.401 4.31934 116.354 4.4402 116.26 4.58015C114.575 7.08651 113.355 9.75191 112.601 12.5763C111.847 15.388 111.47 18.3715 111.47 21.5267C111.47 22.8244 111.523 24.0776 111.629 25.2863C111.747 26.4822 111.9 27.7354 112.089 29.0458C112.136 28.3842 112.2 27.6781 112.283 26.9275C112.377 26.1641 112.501 25.4135 112.654 24.6756C112.819 23.9377 113.025 23.2316 113.273 22.5573C113.52 21.8702 113.826 21.2659 114.192 20.7443C114.557 20.2226 114.981 19.8092 115.464 19.5038C115.959 19.1858 116.536 19.0267 117.196 19.0267C117.891 19.0267 118.469 19.2494 118.928 19.6947C119.388 20.1272 119.618 20.7252 119.618 21.4885C119.618 21.9211 119.553 22.3473 119.423 22.7672C119.294 23.187 119.117 23.5878 118.893 23.9695C118.681 24.3384 118.433 24.6883 118.151 25.0191C117.88 25.3499 117.597 25.6361 117.302 25.8779C116.878 26.2341 116.413 26.5776 115.906 26.9084C116.095 27.3028 116.307 27.6781 116.542 28.0344C116.778 28.3779 117.037 28.6832 117.32 28.9504C117.603 29.2048 117.915 29.4084 118.257 29.5611C118.61 29.7137 118.999 29.7901 119.423 29.7901C119.8 29.7901 120.165 29.7265 120.519 29.5992C120.884 29.4593 121.226 29.2812 121.544 29.0649C121.862 28.8359 122.157 28.5751 122.428 28.2824C122.71 27.9771 122.964 27.659 123.188 27.3282L123.311 27.4046ZM116.33 21.4313C115.741 21.4313 115.258 21.6349 114.881 22.042C114.504 22.4364 114.192 22.9389 113.944 23.5496C113.709 24.1476 113.526 24.8092 113.396 25.5344C113.267 26.2595 113.161 26.9466 113.078 27.5954C113.644 27.3537 114.18 27.0611 114.687 26.7176C115.205 26.3613 115.653 25.9733 116.03 25.5534C116.407 25.1336 116.707 24.6883 116.931 24.2176C117.155 23.7341 117.267 23.2316 117.267 22.7099C117.267 22.3791 117.184 22.0865 117.02 21.8321C116.866 21.5649 116.637 21.4313 116.33 21.4313Z"
        fill="black" />
    <path
        d="M134.435 24.6947C134.435 25.5852 134.3 26.4122 134.029 27.1756C133.758 27.9389 133.375 28.6005 132.88 29.1603C132.385 29.7201 131.79 30.159 131.095 30.4771C130.412 30.7952 129.652 30.9542 128.815 30.9542C128.073 30.9542 127.401 30.8015 126.8 30.4962C126.211 30.2036 125.704 29.8028 125.28 29.2939C124.856 28.785 124.532 28.1934 124.308 27.5191C124.084 26.8321 123.972 26.1005 123.972 25.3244C123.972 24.6756 124.055 24.0585 124.22 23.4733C124.397 22.888 124.638 22.3473 124.944 21.8511C125.251 21.3422 125.616 20.8779 126.04 20.458C126.464 20.0254 126.924 19.6374 127.419 19.2939L127.631 19.4656C127.136 20.0891 126.747 20.7761 126.464 21.5267C126.182 22.2774 126.04 23.0725 126.04 23.9122C126.04 24.5229 126.123 25.1463 126.288 25.7824C126.464 26.4059 126.718 26.9784 127.048 27.5C127.378 28.0216 127.79 28.4478 128.285 28.7786C128.78 29.1094 129.345 29.2748 129.981 29.2748C130.382 29.2748 130.759 29.1858 131.113 29.0076C131.466 28.8295 131.772 28.5878 132.032 28.2824C132.303 27.9771 132.515 27.6336 132.668 27.2519C132.833 26.8575 132.915 26.4504 132.915 26.0305C132.915 25.6234 132.856 25.229 132.739 24.8473C132.633 24.4529 132.479 24.0903 132.279 23.7595C132.079 23.416 131.837 23.1107 131.554 22.8435C131.272 22.5636 130.965 22.3346 130.635 22.1565C130.447 22.0547 130.264 21.9784 130.087 21.9275C129.923 21.8766 129.74 21.8193 129.54 21.7557C129.457 21.743 129.369 21.7239 129.274 21.6985C129.18 21.6603 129.092 21.6221 129.009 21.584C128.927 21.5331 128.856 21.4695 128.797 21.3931C128.738 21.3168 128.709 21.2214 128.709 21.1069C128.709 20.8779 128.786 20.6679 128.939 20.4771C129.092 20.2863 129.274 20.1209 129.487 19.9809C129.699 19.8282 129.923 19.7137 130.158 19.6374C130.394 19.5483 130.6 19.5038 130.777 19.5038C131.378 19.5038 131.908 19.6692 132.367 20C132.827 20.3308 133.21 20.7506 133.516 21.2595C133.823 21.7684 134.052 22.3282 134.205 22.9389C134.359 23.5496 134.435 24.1349 134.435 24.6947Z"
        fill="black" />
    <path
        d="M149.023 27.5954C148.717 28.0789 148.346 28.5305 147.91 28.9504C147.486 29.3702 147.014 29.7328 146.496 30.0382C145.989 30.3435 145.453 30.5852 144.887 30.7634C144.334 30.9415 143.774 31.0305 143.208 31.0305C142.407 31.0305 141.659 30.916 140.964 30.687C140.269 30.4707 139.662 30.1336 139.144 29.6756C138.625 29.2176 138.219 28.645 137.924 27.958C137.629 27.2583 137.482 26.444 137.482 25.5153C137.482 24.5992 137.635 23.7468 137.942 22.958C138.26 22.1565 138.69 21.4631 139.232 20.8779C139.786 20.2799 140.434 19.8092 141.176 19.4656C141.918 19.1221 142.714 18.9504 143.562 18.9504C143.963 18.9504 144.334 19.014 144.675 19.1412C145.029 19.2557 145.335 19.4338 145.594 19.6756C145.854 19.9046 146.054 20.1908 146.195 20.5344C146.349 20.8779 146.425 21.2723 146.425 21.7176C146.425 22.2519 146.325 22.7226 146.125 23.1298C145.924 23.5369 145.659 23.8931 145.329 24.1985C144.999 24.5038 144.622 24.7583 144.198 24.9618C143.786 25.1654 143.35 25.3308 142.89 25.458C142.443 25.5852 141.995 25.6807 141.547 25.7443C141.111 25.7952 140.711 25.8206 140.345 25.8206H139.921C140.074 26.9784 140.499 27.8626 141.194 28.4733C141.889 29.084 142.849 29.3893 144.074 29.3893C144.946 29.3893 145.795 29.2239 146.62 28.8931C147.456 28.5623 148.21 28.1043 148.882 27.5191L149.023 27.5954ZM139.868 25.2481H140.31C140.734 25.2481 141.17 25.1781 141.618 25.0382C142.066 24.8855 142.466 24.6692 142.82 24.3893C143.185 24.0967 143.485 23.7405 143.721 23.3206C143.957 22.9008 144.074 22.4237 144.074 21.8893C144.074 21.3677 143.968 20.9351 143.756 20.5916C143.556 20.2481 143.203 20.0763 142.696 20.0763C142.178 20.0763 141.736 20.2481 141.37 20.5916C141.017 20.9224 140.728 21.3359 140.504 21.8321C140.281 22.3155 140.116 22.8308 140.01 23.3779C139.915 23.9122 139.868 24.3893 139.868 24.8092V25.2481Z"
        fill="black" />
    <path
        d="M165.237 27.5954C165.013 28.0534 164.772 28.4924 164.512 28.9122C164.265 29.3321 163.982 29.701 163.664 30.0191C163.346 30.3372 162.987 30.5916 162.586 30.7824C162.185 30.9733 161.726 31.0687 161.207 31.0687C160.618 31.0687 160.112 30.9097 159.687 30.5916C159.263 30.2863 158.898 29.8791 158.592 29.3702C158.297 28.8486 158.056 28.257 157.867 27.5954C157.69 26.9338 157.543 26.2595 157.425 25.5725C157.307 24.8855 157.219 24.2112 157.16 23.5496C157.101 22.8753 157.048 22.271 157.001 21.7366C156.777 21.9275 156.506 22.2964 156.188 22.8435C155.87 23.3779 155.546 24.0076 155.216 24.7328C154.886 25.458 154.568 26.2468 154.262 27.0992C153.967 27.9517 153.726 28.7913 153.537 29.6183C153.502 29.7964 153.443 29.9809 153.36 30.1718C153.29 30.3626 153.195 30.5344 153.077 30.687C152.971 30.8524 152.842 30.986 152.689 31.0878C152.535 31.2023 152.365 31.2595 152.176 31.2595C151.87 31.2595 151.646 31.145 151.505 30.916C151.375 30.687 151.281 30.4262 151.222 30.1336C150.88 28.5178 150.639 26.972 150.497 25.4962C150.368 24.0204 150.303 22.5445 150.303 21.0687C150.303 20.7125 150.356 20.4071 150.462 20.1527C150.58 19.8855 150.733 19.6692 150.921 19.5038C151.11 19.3257 151.334 19.1985 151.593 19.1221C151.852 19.0331 152.123 18.9885 152.406 18.9885C152.441 18.9885 152.494 18.9885 152.565 18.9885C152.647 18.9885 152.724 19.0013 152.795 19.0267C152.865 19.0394 152.924 19.0649 152.971 19.1031C153.019 19.1412 153.036 19.1921 153.024 19.2557C152.718 20.9224 152.571 22.6209 152.583 24.3511C152.594 26.0687 152.677 27.7226 152.83 29.313C152.96 28.6768 153.148 27.958 153.396 27.1565C153.655 26.3422 153.949 25.528 154.279 24.7137C154.621 23.8868 154.986 23.1043 155.375 22.3664C155.776 21.6158 156.182 20.986 156.595 20.4771C156.795 20.2354 156.995 20.0318 157.195 19.8664C157.408 19.6883 157.667 19.5992 157.973 19.5992C158.15 19.5992 158.297 19.6374 158.415 19.7137C158.533 19.7901 158.627 19.8855 158.698 20C158.78 20.1145 158.839 20.2481 158.874 20.4008C158.922 20.5407 158.957 20.6807 158.981 20.8206C159.039 21.1896 159.098 21.6667 159.157 22.2519C159.216 22.8372 159.287 23.4606 159.369 24.1221C159.464 24.7837 159.576 25.4517 159.705 26.126C159.835 26.7875 160 27.3919 160.2 27.9389C160.4 28.4733 160.642 28.9122 160.925 29.2557C161.207 29.5992 161.543 29.771 161.932 29.771C162.25 29.771 162.557 29.7074 162.851 29.5802C163.157 29.4402 163.446 29.2684 163.717 29.0649C163.988 28.8486 164.241 28.6069 164.477 28.3397C164.713 28.0598 164.925 27.7863 165.113 27.5191L165.237 27.5954Z"
        fill="black" />
    <path
        d="M174.523 20.3244C174.523 20.4644 174.476 20.5916 174.381 20.7061C174.287 20.8079 174.175 20.8588 174.046 20.8588C173.94 20.8588 173.828 20.827 173.71 20.7634C173.592 20.687 173.456 20.6043 173.303 20.5153C173.162 20.4262 172.991 20.3499 172.791 20.2863C172.602 20.2099 172.384 20.1718 172.137 20.1718C171.56 20.1718 171.041 20.369 170.582 20.7634C170.134 21.145 169.751 21.6221 169.433 22.1947C169.126 22.7672 168.891 23.3779 168.726 24.0267C168.561 24.6756 168.478 25.2608 168.478 25.7824C168.478 26.1514 168.508 26.514 168.567 26.8702C168.626 27.2137 168.726 27.5318 168.867 27.8244C169.02 28.1043 169.227 28.3333 169.486 28.5115C169.745 28.6768 170.075 28.7595 170.476 28.7595C170.9 28.7595 171.306 28.6768 171.695 28.5115C172.084 28.3333 172.449 28.1043 172.791 27.8244C172.803 27.4173 172.861 26.9911 172.968 26.5458C173.085 26.0878 173.233 25.6425 173.409 25.2099C173.586 24.7646 173.786 24.3448 174.01 23.9504C174.246 23.556 174.487 23.2061 174.735 22.9008L174.965 23.0534C174.835 23.486 174.741 23.9313 174.682 24.3893C174.623 24.8473 174.594 25.299 174.594 25.7443C174.594 26.2023 174.629 26.6349 174.7 27.042C174.77 27.4491 174.894 27.8053 175.071 28.1107C175.247 28.4033 175.489 28.6387 175.795 28.8168C176.102 28.9822 176.496 29.0649 176.979 29.0649C177.569 29.0649 178.111 28.9186 178.605 28.626C179.1 28.3333 179.536 27.9644 179.913 27.5191L180.055 27.5954C179.843 28.0407 179.566 28.4669 179.224 28.874C178.882 29.2812 178.499 29.6501 178.075 29.9809C177.663 30.299 177.221 30.5534 176.75 30.7443C176.278 30.9351 175.813 31.0305 175.353 31.0305C174.705 31.0305 174.175 30.827 173.763 30.4198C173.35 30.0254 173.068 29.5229 172.915 28.9122C172.42 29.4466 171.866 29.8982 171.253 30.2672C170.652 30.6234 170.016 30.8015 169.344 30.8015C168.85 30.8015 168.408 30.6997 168.019 30.4962C167.642 30.3053 167.324 30.0445 167.064 29.7137C166.805 29.383 166.605 28.9949 166.464 28.5496C166.334 28.0916 166.269 27.6145 166.269 27.1183C166.269 26.5458 166.352 25.9606 166.517 25.3626C166.693 24.7519 166.929 24.1539 167.224 23.5687C167.53 22.9835 167.889 22.43 168.302 21.9084C168.714 21.3868 169.162 20.9288 169.645 20.5344C170.14 20.1399 170.658 19.8282 171.2 19.5992C171.742 19.3702 172.296 19.2557 172.861 19.2557C172.991 19.2557 173.15 19.2748 173.339 19.313C173.527 19.3384 173.71 19.3893 173.887 19.4656C174.063 19.542 174.211 19.6501 174.328 19.7901C174.458 19.93 174.523 20.1081 174.523 20.3244Z"
        fill="black" />
</svg>